<svg width="25" height="24" viewBox="0 0 25 24" fill="none" xmlns="http://www.w3.org/2000/svg">
<g clip-path="url(#clip0_12_26)">
<path d="M23.1754 24.0001C23.9068 24.0001 24.5 23.407 24.5 22.6755V1.32459C24.5 0.592969 23.9068 0 23.1754 0H1.82459C1.09288 0 0.5 0.592969 0.5 1.32459V22.6755C0.5 23.407 1.09288 24.0001 1.82459 24.0001H23.1754Z" fill="#395185"/>
<path d="M17.0595 24.0001V14.706H20.1792L20.6463 11.084H17.0595V8.77135C17.0595 7.72266 17.3508 7.008 18.8547 7.008L20.7727 7.00716V3.76763C20.4408 3.72347 19.3023 3.62485 17.9778 3.62485C15.2124 3.62485 13.3192 5.31282 13.3192 8.41275V11.084H10.1915V14.706H13.3192V24.0001H17.0595Z" fill="white"/>
</g>
<defs>
<clipPath id="clip0_12_26">
<rect x="0.5" width="24" height="24" rx="12" fill="white"/>
</clipPath>
</defs>
</svg>
