<svg width="24" height="24" viewBox="0 0 24 24" fill="none" xmlns="http://www.w3.org/2000/svg">
<path d="M20.16 5.00004C19.1 3.93725 17.6948 3.28858 16.1983 3.17121C14.7019 3.05384 13.2128 3.47551 12 4.36004C10.7277 3.41368 9.14399 2.98455 7.56792 3.15908C5.99185 3.33361 4.54044 4.09882 3.50597 5.30063C2.47151 6.50244 1.93082 8.05156 1.9928 9.63606C2.05478 11.2206 2.71482 12.7227 3.84 13.84L10.05 20.06C10.57 20.5718 11.2704 20.8587 12 20.8587C12.7296 20.8587 13.43 20.5718 13.95 20.06L20.16 13.84C21.3276 12.6653 21.9829 11.0763 21.9829 9.42004C21.9829 7.76377 21.3276 6.17478 20.16 5.00004ZM18.75 12.46L12.54 18.67C12.4693 18.7414 12.3852 18.798 12.2925 18.8367C12.1999 18.8753 12.1004 18.8953 12 18.8953C11.8996 18.8953 11.8001 18.8753 11.7075 18.8367C11.6148 18.798 11.5307 18.7414 11.46 18.67L5.25 12.43C4.46576 11.6284 4.02661 10.5515 4.02661 9.43004C4.02661 8.30858 4.46576 7.2317 5.25 6.43004C6.04916 5.64103 7.12697 5.19861 8.25 5.19861C9.37303 5.19861 10.4508 5.64103 11.25 6.43004C11.343 6.52377 11.4536 6.59817 11.5754 6.64893C11.6973 6.6997 11.828 6.72584 11.96 6.72584C12.092 6.72584 12.2227 6.6997 12.3446 6.64893C12.4664 6.59817 12.577 6.52377 12.67 6.43004C13.4692 5.64103 14.547 5.19861 15.67 5.19861C16.793 5.19861 17.8708 5.64103 18.67 6.43004C19.465 7.22119 19.9186 8.29223 19.9335 9.41373C19.9485 10.5352 19.5236 11.618 18.75 12.43V12.46Z" fill="black"/>
</svg>
