<svg width="25" height="24" viewBox="0 0 25 24" fill="none" xmlns="http://www.w3.org/2000/svg">
<path d="M18.2664 16.6303L15.2979 13.6858C16.4502 12.2491 17.0082 10.4255 16.8572 8.58998C16.7063 6.75448 15.8578 5.04658 14.4862 3.81747C13.1147 2.58835 11.3243 1.93145 9.48332 1.98182C7.64231 2.0322 5.89056 2.78603 4.58829 4.08831C3.28601 5.39059 2.53218 7.14233 2.4818 8.98334C2.43142 10.8244 3.08833 12.6147 4.31744 13.9862C5.54656 15.3578 7.25445 16.2063 9.08995 16.3573C10.9255 16.5082 12.749 15.9502 14.1858 14.798L17.1302 17.7424C17.2046 17.8174 17.2931 17.877 17.3906 17.9176C17.4881 17.9582 17.5927 17.9791 17.6983 17.9791C17.804 17.9791 17.9085 17.9582 18.006 17.9176C18.1036 17.877 18.192 17.8174 18.2664 17.7424C18.4106 17.5933 18.4913 17.3939 18.4913 17.1864C18.4913 16.9789 18.4106 16.7795 18.2664 16.6303ZM9.69702 14.798C8.58926 14.798 7.50638 14.4695 6.58531 13.854C5.66424 13.2386 4.94636 12.3639 4.52244 11.3404C4.09851 10.317 3.9876 9.19082 4.20371 8.10435C4.41982 7.01788 4.95326 6.01989 5.73656 5.23659C6.51987 4.45328 7.51786 3.91985 8.60433 3.70373C9.6908 3.48762 10.817 3.59854 11.8404 4.02246C12.8638 4.44638 13.7386 5.16426 14.354 6.08533C14.9695 7.0064 15.2979 8.08928 15.2979 9.19704C15.2979 10.6825 14.7078 12.1071 13.6575 13.1575C12.6071 14.2079 11.1825 14.798 9.69702 14.798Z" fill="#7A7A7A"/>
</svg>
